HIERARCHY
ROOT joint_Root
{
	OFFSET 0.0 0.0 0.0
	CHANNELS 6 Xposition Yposition Zposition Zrotation Xrotation Yrotation 
	JOINT Hips
	{
		OFFSET -0.726466 93.3139 -2.00062
		CHANNELS 6 Xposition Yposition Zposition Zrotation Xrotation Yrotation 
		JOINT Spine
		{
			OFFSET 15.7357 0.0 0.0
			CHANNELS 6 Xposition Yposition Zposition Zrotation Xrotation Yrotation 
			JOINT Chest
			{
				OFFSET 8.98455 -0.406207 0.0
				CHANNELS 6 Xposition Yposition Zposition Zrotation Xrotation Yrotation 
				JOINT Neck
				{
					OFFSET 16.3773 0.0 0.0
					CHANNELS 6 Xposition Yposition Zposition Zrotation Xrotation Yrotation 
					JOINT Head
					{
						OFFSET 6.45672 0.0 0.0
						CHANNELS 6 Xposition Yposition Zposition Zrotation Xrotation Yrotation 
						End Site
						{
							OFFSET 0.0 0.0 0.0
						}
					}
				}
				JOINT Shoulder_L
				{
					OFFSET 12.9942 -0.242716 4.98039
					CHANNELS 6 Xposition Yposition Zposition Zrotation Xrotation Yrotation 
					JOINT UpperArm_L
					{
						OFFSET 5.34809 0.0 0.0
						CHANNELS 6 Xposition Yposition Zposition Zrotation Xrotation Yrotation 
						JOINT LowerArm_L
						{
							OFFSET 24.3286 1.87007e-05 0.0
							CHANNELS 6 Xposition Yposition Zposition Zrotation Xrotation Yrotation 
							JOINT Hand_L
							{
								OFFSET 22.2916 0.0 0.0
								CHANNELS 6 Xposition Yposition Zposition Zrotation Xrotation Yrotation 
								End Site
								{
									OFFSET 0.0 0.0 0.0
								}
							}
						}
					}
				}
				JOINT Shoulder_R
				{
					OFFSET 12.9945 -0.242716 -4.98039
					CHANNELS 6 Xposition Yposition Zposition Zrotation Xrotation Yrotation 
					JOINT UpperArm_R
					{
						OFFSET -5.34813 0.0 0.0
						CHANNELS 6 Xposition Yposition Zposition Zrotation Xrotation Yrotation 
						JOINT LowerArm_R
						{
							OFFSET -24.3289 0.000322201 0.0
							CHANNELS 6 Xposition Yposition Zposition Zrotation Xrotation Yrotation 
							JOINT Hand_R
							{
								OFFSET -22.2915 -0.000108084 0.0
								CHANNELS 6 Xposition Yposition Zposition Zrotation Xrotation Yrotation 
								End Site
								{
									OFFSET 0.0 0.0 0.0
								}
							}
						}
					}
				}
			}
		}
		JOINT UpperLeg_L
		{
			OFFSET -2.19248 -6.46944 0.0
			CHANNELS 6 Xposition Yposition Zposition Zrotation Xrotation Yrotation 
			JOINT LowerLeg_L
			{
				OFFSET 39.0811 0.0 -1.23785e-05
				CHANNELS 6 Xposition Yposition Zposition Zrotation Xrotation Yrotation 
				JOINT Foot_L
				{
					OFFSET 40.9854 0.0 -1.26872e-05
					CHANNELS 6 Xposition Yposition Zposition Zrotation Xrotation Yrotation 
					JOINT Toes_L
					{
						OFFSET 11.7543 0.0 0.0
						CHANNELS 6 Xposition Yposition Zposition Zrotation Xrotation Yrotation 
						End Site
						{
							OFFSET 0.0 0.0 0.0
						}
					}
				}
			}
		}
		JOINT UpperLeg_R
		{
			OFFSET -2.19251 6.46944 0.0
			CHANNELS 6 Xposition Yposition Zposition Zrotation Xrotation Yrotation 
			JOINT LowerLeg_R
			{
				OFFSET -39.0811 -0.00228153 -0.0401928
				CHANNELS 6 Xposition Yposition Zposition Zrotation Xrotation Yrotation 
				JOINT Foot_R
				{
					OFFSET -40.9854 0.0 0.0
					CHANNELS 6 Xposition Yposition Zposition Zrotation Xrotation Yrotation 
					JOINT Toes_R
					{
						OFFSET -11.7543 0.0 0.0
						CHANNELS 6 Xposition Yposition Zposition Zrotation Xrotation Yrotation 
						End Site
						{
							OFFSET 0.0 0.0 0.0
						}
					}
				}
			}
		}
	}
}
MOTION
Frames:	5
Frame Time:	0.0333333
0.000000 0.000000 0.000000 0.000000 0.000000 -0.000000 0.389211 92.362100 -1.071350 87.860800 0.379606 5.052370 15.735700 0.000005 -0.000001 87.073300 85.890600 -87.506300 8.984550 -0.406207 -0.000000 0.440709 -0.391835 -0.863862 16.377300 -0.000001 -0.000001 4.366500 -3.349930 3.439310 6.456720 -0.000001 -0.000000 7.651710 -4.337350 -0.780143 12.994200 -0.242716 4.980390 -89.541700 -1.426110 -72.180800 5.348090 -0.000007 -0.000001 -70.223700 36.972600 -11.080600 24.328600 0.000019 0.000005 1.725540 4.592650 -20.617300 22.291600 -0.000001 0.000005 5.643300 5.471950 -5.443130 12.994500 -0.242716 -4.980390 90.511300 -1.459730 -70.694600 -5.348130 -0.000001 -0.000004 -78.125900 -31.117500 -97.599800 -24.328900 0.000322 -0.000009 10.226900 1.094300 -83.959500 -22.291500 -0.000108 -0.000004 19.648100 5.318550 -0.454019 -2.192480 -6.469440 -0.000000 -175.813000 -6.752790 -2.149050 39.081100 -0.000007 -0.000012 -0.090941 0.213859 23.037100 40.985400 -0.000006 -0.000013 0.854074 4.985260 -66.191100 11.754300 -0.000000 0.000003 -0.000040 -0.000465 -16.595700 -2.192510 6.469440 -0.000001 179.206000 15.158500 -179.124000 -39.081100 -0.002282 -0.040193 -0.015415 0.053802 19.202300 -40.985400 0.000008 0.000006 3.744570 7.702150 -65.494700 -11.754300 -0.000006 -0.000006 -0.008891 -0.095152 -20.448700
0.000000 0.000000 0.000000 0.000000 0.000000 -0.000000 0.409046 92.368500 -1.074210 87.890200 0.410284 5.054990 15.735700 0.000005 -0.000001 87.247800 85.869500 -87.681800 8.984550 -0.406207 -0.000000 0.484127 -0.368971 -0.865715 16.377300 -0.000001 -0.000001 4.437340 -3.403090 3.471320 6.456720 -0.000001 -0.000000 7.569810 -4.414480 -0.768910 12.994200 -0.242716 4.980390 -89.551300 -1.396580 -72.186600 5.348090 -0.000007 -0.000001 -69.951300 36.961300 -11.448800 24.328600 0.000019 0.000005 1.673800 4.383310 -20.923300 22.291600 -0.000001 0.000005 5.630420 5.471940 -5.442890 12.994500 -0.242716 -4.980390 90.509700 -1.446430 -70.587200 -5.348130 -0.000001 -0.000004 -78.157300 -31.122900 -97.698400 -24.328900 0.000322 -0.000009 10.203800 1.115980 -83.826500 -22.291500 -0.000108 -0.000004 19.856900 5.317090 -0.412836 -2.192480 -6.469440 -0.000000 -175.853000 -6.768250 -2.119080 39.081100 -0.000007 -0.000012 -0.090191 0.212757 22.972900 40.985400 -0.000006 -0.000013 0.870143 5.008770 -66.156800 11.754300 -0.000000 0.000003 -0.000039 -0.000460 -16.595500 -2.192510 6.469440 -0.000001 179.174000 15.155100 -179.115000 -39.081100 -0.002282 -0.040193 -0.013595 0.048604 19.192300 -40.985400 0.000008 0.000006 3.809960 7.667890 -65.500800 -11.754300 -0.000006 -0.000006 -0.008925 -0.095422 -20.459700
0.000000 0.000000 0.000000 0.000000 0.000000 -0.000000 0.420792 92.366000 -1.077900 87.885100 0.476273 5.046260 15.735700 0.000005 -0.000001 86.933600 85.857100 -87.360200 8.984550 -0.406207 -0.000000 0.506430 -0.416070 -0.850736 16.377300 -0.000001 -0.000001 4.474370 -3.450960 3.504000 6.456720 -0.000001 -0.000000 7.641660 -4.448530 -0.700772 12.994200 -0.242716 4.980390 -89.562500 -1.361320 -72.181200 5.348090 -0.000007 -0.000001 -69.733400 37.004600 -11.754500 24.328600 0.000019 0.000005 1.648690 4.256350 -21.196400 22.291600 -0.000001 0.000005 5.652230 5.471460 -5.424780 12.994500 -0.242716 -4.980390 90.517500 -1.463560 -70.524500 -5.348130 -0.000001 -0.000004 -78.172400 -31.064700 -97.504600 -24.328900 0.000322 -0.000009 10.020500 1.070390 -83.967100 -22.291500 -0.000108 -0.000004 19.965700 5.317000 -0.409724 -2.192480 -6.469440 -0.000000 -175.851000 -6.755560 -2.155460 39.081100 -0.000007 -0.000012 -0.092202 0.217184 23.002900 40.985400 -0.000006 -0.000013 0.890534 5.073120 -66.164900 11.754300 -0.000000 0.000003 -0.000043 -0.000500 -16.597000 -2.192510 6.469440 -0.000001 179.169000 15.184700 -179.129000 -39.081100 -0.002282 -0.040193 -0.014303 0.050610 19.201800 -40.985400 0.000008 0.000006 3.766910 7.639020 -65.497100 -11.754300 -0.000006 -0.000006 -0.009196 -0.097527 -20.545800
0.000000 0.000000 0.000000 0.000000 0.000000 -0.000000 0.441403 92.369400 -1.084680 87.890700 0.506655 5.068880 15.735700 0.000005 -0.000001 86.673400 85.841600 -87.098500 8.984550 -0.406207 -0.000000 0.535177 -0.455624 -0.847474 16.377300 -0.000001 -0.000001 4.596830 -3.547410 3.530690 6.456720 -0.000001 -0.000000 7.730820 -4.572390 -0.610181 12.994200 -0.242716 4.980390 -89.587700 -1.283610 -72.189800 5.348090 -0.000007 -0.000001 -69.528800 37.151600 -11.984900 24.328600 0.000019 0.000005 1.624190 4.140700 -21.439500 22.291600 -0.000001 0.000005 5.815640 5.473890 -5.516140 12.994500 -0.242716 -4.980390 90.516600 -1.462220 -70.540200 -5.348130 -0.000001 -0.000004 -78.048200 -31.024700 -96.819300 -24.328900 0.000322 -0.000009 9.899330 0.960216 -84.517300 -22.291500 -0.000108 -0.000004 19.968200 5.319460 -0.480656 -2.192480 -6.469440 -0.000000 -175.867000 -6.782130 -2.132520 39.081100 -0.000007 -0.000012 -0.091579 0.215928 22.982800 40.985400 -0.000006 -0.000013 0.915500 5.110450 -66.148500 11.754300 -0.000000 0.000003 -0.000040 -0.000462 -16.595600 -2.192510 6.469440 -0.000001 179.156000 15.188900 -179.106000 -39.081100 -0.002282 -0.040193 -0.011540 0.042679 19.200700 -40.985400 0.000008 0.000006 3.854120 7.600850 -65.509000 -11.754300 -0.000006 -0.000006 -0.009115 -0.096902 -20.520200
0.000000 0.000000 0.000000 0.000000 0.000000 -0.000000 0.469282 92.357800 -1.094000 87.896300 0.430486 5.074670 15.735700 0.000005 -0.000001 86.724300 85.822500 -87.152000 8.984550 -0.406207 -0.000000 0.573856 -0.450407 -0.852510 16.377300 -0.000001 -0.000001 4.695170 -3.666150 3.557840 6.456720 -0.000001 -0.000000 7.843700 -4.718780 -0.553512 12.994200 -0.242716 4.980390 -89.624400 -1.168470 -72.179000 5.348090 -0.000007 -0.000001 -69.317700 37.340200 -12.252100 24.328600 0.000019 0.000005 1.606490 4.068540 -21.568000 22.291600 -0.000001 0.000005 5.829120 5.474440 -5.536960 12.994500 -0.242716 -4.980390 90.510300 -1.450850 -70.619400 -5.348130 -0.000001 -0.000004 -77.660800 -30.966600 -95.336500 -24.328900 0.000322 -0.000009 9.770250 0.729680 -85.773100 -22.291500 -0.000108 -0.000004 20.125800 5.313420 -0.307352 -2.192480 -6.469440 -0.000000 -175.898000 -6.782080 -2.165180 39.081100 -0.000007 -0.000012 -0.090503 0.212540 23.065200 40.985400 -0.000006 -0.000013 0.923247 5.033520 -66.189700 11.754300 -0.000000 0.000003 -0.000038 -0.000442 -16.594800 -2.192510 6.469440 -0.000001 179.116000 15.112700 -179.160000 -39.081100 -0.002282 -0.040193 -0.016855 0.057677 19.282100 -40.985400 0.000008 0.000006 3.657680 7.642530 -65.496100 -11.754300 -0.000006 -0.000006 -0.009244 -0.097898 -20.560900
